<?xml version="1.0" standalone="no"?>
<!DOCTYPE svg PUBLIC "-//W3C//DTD SVG 20010904//EN"
 "http://www.w3.org/TR/2001/REC-SVG-20010904/DTD/svg10.dtd">
<svg version="1.0" xmlns="http://www.w3.org/2000/svg"
 width="243.000000pt" height="243.000000pt" viewBox="0 0 243.000000 243.000000"
 preserveAspectRatio="xMidYMid meet">
<metadata>
Created by potrace 1.14, written by Peter Selinger 2001-2017
</metadata>
<g transform="translate(0.000000,243.000000) scale(0.100000,-0.100000)"
fill="#000000" stroke="none">
<path d="M1128 2417 c-92 -26 -161 -85 -205 -176 -24 -47 -28 -68 -27 -136 0
-67 5 -89 27 -132 31 -59 76 -110 125 -138 l32 -19 0 -327 0 -327 -68 24 c-37
13 -101 26 -140 28 -115 8 -194 55 -228 134 -12 29 -11 32 14 48 116 76 173
214 142 344 -53 222 -323 317 -503 177 -175 -136 -159 -401 31 -521 31 -19 42
-34 52 -73 20 -75 68 -158 125 -217 91 -93 195 -138 347 -150 74 -5 116 -23
159 -67 49 -50 62 -87 67 -184 l3 -90 -49 -32 c-57 -37 -107 -106 -129 -182
-39 -136 32 -295 162 -360 123 -61 252 -44 363 51 18 15 32 31 32 37 0 6 3 11
8 11 4 0 18 23 31 52 17 37 24 71 25 118 0 74 -2 88 -30 150 -20 43 -95 130
-114 130 -5 0 -16 7 -25 16 -22 23 -19 153 6 212 37 85 129 142 232 142 62 0
157 29 220 67 109 66 181 156 221 274 18 53 32 79 50 90 43 26 84 66 112 109
31 47 59 150 41 150 -9 0 -9 2 0 8 11 7 11 32 -2 82 -3 14 -7 30 -9 35 -15 62
-98 148 -176 183 -117 51 -283 16 -357 -78 -63 -79 -74 -106 -78 -207 -3 -62
6 -100 39 -163 20 -37 78 -99 110 -117 25 -14 16 -51 -25 -97 -42 -49 -101
-73 -190 -80 -42 -3 -106 -16 -142 -29 l-67 -24 0 326 0 326 51 33 c57 38 112
116 130 186 24 98 -13 226 -87 300 -76 76 -206 111 -306 83z m142 -202 c70
-36 80 -146 19 -197 -56 -47 -143 -35 -179 24 -66 109 47 231 160 173z m757
-474 c16 -18 22 -39 23 -73 0 -39 -5 -52 -34 -82 -29 -31 -39 -36 -80 -36 -52
0 -106 23 -106 44 0 8 -5 16 -10 18 -9 3 -15 46 -11 90 2 33 51 77 94 86 49
10 89 -5 124 -47z m-1478 35 c56 -29 79 -100 52 -163 -48 -113 -231 -75 -231
49 0 99 93 158 179 114z m737 -1356 c27 -17 44 -57 44 -105 0 -88 -98 -143
-179 -101 -40 21 -61 59 -61 109 0 99 108 152 196 97z"/>
</g>
</svg>
